<svg width="63" height="63" viewBox="0 0 63 63" fill="none" xmlns="http://www.w3.org/2000/svg">
<path fill-rule="evenodd" clip-rule="evenodd" d="M7.35972 21.9276C6.62435 28.7602 6.65713 36.6404 7.68041 43.4452C8.24662 47.2105 11.3196 50.0971 15.1129 50.4268L19.0773 50.7714C27.3435 51.49 35.6566 51.49 43.9228 50.7714L47.8872 50.4268C51.6805 50.0971 54.7535 47.2105 55.3197 43.4452C56.343 36.6404 56.3758 28.7606 55.6404 21.928C55.5454 21.1359 55.4384 20.3448 55.3197 19.5551C54.7535 15.7898 51.6805 12.9032 47.8872 12.5735L43.9228 12.2289C35.6565 11.5103 27.3435 11.5103 19.0773 12.2289L15.1129 12.5735C11.3196 12.9032 8.24662 15.7898 7.68041 19.5551C7.56168 20.3447 7.45478 21.1356 7.35972 21.9276ZM19.4183 16.1516C27.4576 15.4527 35.5425 15.4527 43.5818 16.1516L47.5462 16.4962C49.5263 16.6683 51.1304 18.1751 51.426 20.1406C51.4566 20.3447 51.4865 20.5489 51.5155 20.7532L36.9179 28.863C33.5485 30.7349 29.4514 30.7349 26.082 28.863L11.4845 20.7533C11.5136 20.549 11.5434 20.3447 11.5741 20.1406C11.8697 18.1751 13.4738 16.6683 15.4539 16.4962L19.4183 16.1516ZM51.9974 24.9899C52.5065 30.9427 52.3161 36.9405 51.426 42.8597C51.1304 44.8252 49.5263 46.332 47.5462 46.5041L43.5818 46.8487C35.5425 47.5476 27.4576 47.5476 19.4183 46.8487L15.4539 46.5041C13.4738 46.332 11.8697 44.8252 11.5741 42.8597C10.684 36.9405 10.4936 30.9428 11.0027 24.99L24.1698 32.305C28.7284 34.8376 34.2715 34.8376 38.8301 32.305L51.9974 24.9899Z" fill="black"/>
</svg>
