<svg width="41" height="40" viewBox="0 0 41 40" fill="none" xmlns="http://www.w3.org/2000/svg">
<path d="M10.8058 21.304H15.3001V39.3548C15.3001 39.7112 15.5961 40 15.9614 40H23.5816C23.9469 40 24.2428 39.7112 24.2428 39.3548V21.389H29.4094C29.7453 21.389 30.0279 21.1431 30.0663 20.8175L30.851 14.1721C30.8725 13.9893 30.8132 13.8062 30.6878 13.669C30.5623 13.5317 30.3827 13.4532 30.1942 13.4532H24.2431V9.28748C24.2431 8.03174 24.9361 7.39497 26.3032 7.39497C26.498 7.39497 30.1942 7.39497 30.1942 7.39497C30.5595 7.39497 30.8555 7.10606 30.8555 6.74981V0.649935C30.8555 0.293548 30.5595 0.00477419 30.1942 0.00477419H24.8318C24.794 0.00296774 24.71 0 24.5862 0C23.6558 0 20.4216 0.178193 17.8669 2.4711C15.0364 5.012 15.4298 8.05432 15.5239 8.58181V13.453H10.8058C10.4405 13.453 10.1445 13.7418 10.1445 14.0982V20.6587C10.1445 21.0151 10.4405 21.304 10.8058 21.304Z" fill="black"/>
</svg>
